<svg width="100" height="52" viewBox="0 0 100 52" fill="none" xmlns="http://www.w3.org/2000/svg">
<path d="M21.3276 51.3879V33.3363C21.3276 33.3363 20.8005 33.1606 20.7413 32.6908C20.6821 32.221 20.7413 31.5182 20.7413 31.5182H29.24L37.1523 48.3398H38.09V31.52H42.0166V51.3879H34.28L26.4268 34.7438H25.3134L25.4299 51.3879H21.3276Z" fill="#0D0D0D"/>
<path d="M81.2252 31.4424H100V34.7993H92.7405V49.5865C92.7405 49.5865 93.1178 49.7122 93.3657 50.0581V51.3861H87.8614V50.0581C87.8614 50.0581 88.0963 49.7011 88.5642 49.5902V34.7216H81.2271V31.4424H81.2252Z" fill="#0D0D0D"/>
<path d="M0.530821 20.2932H4.54249V3.70644H5.26197L10.8901 20.2932H14.9629L20.7113 3.70644H21.2495V20.2932H25.62V0.591797H16.9974V1.67008C16.9974 1.67008 16.9974 2.0289 17.6558 2.2083L13.3445 15.7415H12.9432L8.10288 0.591797H0V1.76811C0 1.76811 0.0758316 2.07329 0.688033 2.34147L0.530821 20.2914V20.2932Z" fill="#0D0D0D"/>
<path d="M93.1063 0.552979H98.0502V18.7544C98.0502 18.7544 98.5237 18.8062 98.5755 19.1225V20.3321H93.1045V19.1742C93.1045 19.1742 93.2617 18.649 93.6834 18.649V2.02707C93.6834 2.02707 93.2414 2.00672 93.1045 1.65901V0.552979H93.1063Z" fill="#0D0D0D"/>
<path d="M79.3586 14.6244C78.8389 12.9339 78.0158 12.6306 78.0158 12.6306C76.3253 11.5912 76.4992 10.204 76.4992 10.204C81.5688 9.12017 80.7013 5.26386 80.7013 5.26386C80.8752 0.8009 74.8087 0.410645 74.8087 0.410645H62.6775V1.66649L63.2416 2.14367V20.4709H67.6602V11.9352H74.3334L77.0633 20.4709H81.4393L79.3604 14.6207L79.3586 14.6244ZM73.5954 8.94817H67.5289V3.53268C67.5289 3.53268 70.5177 3.49015 73.551 3.53268C76.5843 3.57522 76.5843 6.24043 76.5843 6.24043C76.5843 8.68923 73.5954 8.94817 73.5954 8.94817Z" fill="#0D0D0D"/>
<path d="M43.0871 0C36.4361 0 33.4713 4.67566 33.4713 10.4426C33.4713 18.1903 37.7771 20.8851 43.0871 20.8851C48.3972 20.8851 53.2467 18.3753 53.2467 10.4426C53.2467 4.67566 50.3318 0 43.0871 0ZM43.2295 17.6946C40.1981 17.6946 37.7401 15.8063 37.7401 10.3778C37.7401 6.33656 39.4324 3.061 43.2295 3.061C47.3651 3.061 48.719 6.33656 48.719 10.3778C48.719 15.9376 46.2609 17.6946 43.2295 17.6946Z" fill="#0D0D0D"/>
<path d="M68.9516 31.6439V34.8751H57.8451V39.9872H68.4818V42.9835H57.8451V48.4489H68.9516V51.3879H53.6151V33.5249C53.6151 33.5249 53.2045 33.4657 53.027 32.9368V31.6439H68.9516Z" fill="#0D0D0D"/>
<path d="M0.55481 42.3528L0.55481 39.5479L14.0008 39.5479C14.0008 39.5479 14.039 39.2438 14.2727 39.2105L15.1663 39.2105L15.1663 42.3528L14.4264 42.3528C14.4264 42.3528 14.4264 42.3528 13.9229 42.3528L1.64377 42.3528C1.64377 42.3528 1.29463 42.3547 1.10967 42.3547L0.55481 42.3528Z" fill="#0D0D0D"/>
</svg>
