<svg width="100" height="11" viewBox="0 0 100 11" fill="none" xmlns="http://www.w3.org/2000/svg">
<g clip-path="url(#clip0_23107_14182)">
<path d="M0.26549 10.1497H2.27193V1.85381H2.63177L5.44671 10.1497H7.48367L10.3587 1.85381H10.6279V10.1497H12.8138V0.296021H8.50123V0.835326C8.50123 0.835326 8.50123 1.01479 8.83055 1.10452L6.67425 7.87312H6.47352L4.05265 0.296021H0V0.884354C0 0.884354 0.0379271 1.03699 0.344119 1.17112L0.26549 10.1488V10.1497Z" fill="#131212"/>
<path d="M55.4395 10.2107V1.18221C55.4395 1.18221 55.1758 1.09433 55.1462 0.859371C55.1166 0.624408 55.1462 0.272888 55.1462 0.272888H59.3968L63.3542 8.68624H63.8232V0.273813H65.7871V10.2107H61.9176L57.9898 1.88618H57.4329L57.4912 10.2107H55.4395Z" fill="#131212"/>
<path d="M79.2586 0.335785V1.95185H73.7037V4.5087H79.0237V6.00728H73.7037V8.74081H79.2586V10.2107H71.5881V1.27656C71.5881 1.27656 71.3828 1.24696 71.2939 0.982396V0.335785H79.2586Z" fill="#131212"/>
<path d="M46.5671 0.276581H49.0398V9.38002C49.0398 9.38002 49.2766 9.40592 49.3025 9.56411V10.1691H46.5662V9.59001C46.5662 9.59001 46.6448 9.32729 46.8557 9.32729V1.01385C46.8557 1.01385 46.6346 1.00367 46.5662 0.829762V0.276581H46.5671Z" fill="#131212"/>
<path d="M85.3973 0.234955H94.7875V1.91392H91.1567V9.30972C91.1567 9.30972 91.3454 9.37262 91.4694 9.54561V10.2098H88.7164V9.54561C88.7164 9.54561 88.8339 9.36707 89.0679 9.31157V1.87507H85.3983V0.234955H85.3973Z" fill="#131212"/>
<path d="M39.6912 7.31438C39.4313 6.46888 39.0196 6.31717 39.0196 6.31717C38.1741 5.79729 38.2611 5.1035 38.2611 5.1035C40.7966 4.56142 40.3628 2.63269 40.3628 2.63269C40.4497 0.400539 37.4156 0.205353 37.4156 0.205353H31.3481V0.833463L31.6303 1.07213V10.2385H33.8402V5.96935H37.1778L38.5432 10.2385H40.7319L39.6921 7.31253L39.6912 7.31438ZM36.8087 4.47539H33.7746V1.76684C33.7746 1.76684 35.2694 1.74556 36.7865 1.76684C38.3036 1.78812 38.3036 3.12112 38.3036 3.12112C38.3036 4.34589 36.8087 4.47539 36.8087 4.47539Z" fill="#131212"/>
<path d="M21.0875 0C17.7611 0 16.2782 2.33853 16.2782 5.22285C16.2782 9.09789 18.4317 10.4457 21.0875 10.4457C23.7434 10.4457 26.1689 9.19039 26.1689 5.22285C26.1689 2.33853 24.711 0 21.0875 0ZM21.1588 8.84998C19.6426 8.84998 18.4132 7.9055 18.4132 5.19047C18.4132 3.16923 19.2596 1.53096 21.1588 1.53096C23.2272 1.53096 23.9043 3.16923 23.9043 5.19047C23.9043 7.97118 22.6749 8.84998 21.1588 8.84998Z" fill="#131212"/>
</g>
<defs>
<clipPath id="clip0_23107_14182">
<rect width="100" height="10.4457" fill="white"/>
</clipPath>
</defs>
</svg>
